<svg width="115" height="24" viewBox="0 0 115 24" fill="none" xmlns="http://www.w3.org/2000/svg">
    <g clip-path="url(#clip0_214_113)">
        <path d="M1.88954 17.2077C0.892194 15.7604 0.266708 14.0898 0.0683581 12.3435C-0.129992 10.5971 0.104903 8.82878 0.752282 7.19477C1.39966 5.56075 2.43959 4.11136 3.78016 2.97471C5.12073 1.83805 6.72065 1.04912 8.43854 0.677654C10.7858 0.158436 13.2396 0.447015 15.4024 1.49663C17.5651 2.54625 19.3101 4.2954 20.3545 6.46065C21.1858 8.13843 21.5469 10.0101 21.3995 11.8767C21.241 14.4939 20.1058 16.9563 18.2185 18.7767C16.6276 20.3633 14.5672 21.3944 12.3435 21.7167C10.8295 21.9494 9.28328 21.8573 7.80754 21.4467C7.64054 21.4017 7.57154 21.3407 7.57654 21.1537C7.59154 20.5767 7.58254 19.9997 7.58254 19.4197C8.01354 19.5357 8.42854 19.6747 8.85454 19.7577C10.273 20.081 11.7502 20.0405 13.1489 19.64C14.5475 19.2394 15.8222 18.4918 16.8545 17.4667C18.3752 16.0527 19.3176 14.1251 19.4995 12.0567C19.6459 10.8032 19.5142 9.53285 19.1137 8.33609C18.7132 7.13933 18.0539 6.04557 17.1825 5.13265C15.8039 3.5977 13.9112 2.62025 11.8615 2.38465C10.5715 2.20036 9.25646 2.31163 8.01573 2.71008C6.77501 3.10852 5.64106 3.78372 4.69954 4.68465C3.18816 6.06169 2.21884 7.93366 1.96654 9.96265C1.91121 10.4499 1.88882 10.9404 1.89954 11.4307C1.89954 13.3087 1.89954 15.1867 1.90654 17.0647C1.90654 17.0917 1.90654 17.1197 1.89354 17.2077" fill="white"/>
        <path d="M5.69505 15.5706V20.5866C5.63401 20.5688 5.57475 20.5453 5.51805 20.5166C4.98505 20.1586 4.45005 19.8036 3.92605 19.4336C3.88754 19.3991 3.85649 19.357 3.83482 19.3101C3.81315 19.2631 3.80132 19.2123 3.80005 19.1606C3.80005 16.3546 3.75305 13.5486 3.81605 10.7436C3.84514 9.22393 4.39564 7.76046 5.37529 6.59839C6.35494 5.43631 7.70423 4.64624 9.19705 4.36056C10.1951 4.13222 11.2311 4.126 12.2318 4.34235C13.2325 4.5587 14.1735 4.99233 14.9881 5.61256C15.7108 6.15155 16.3138 6.83468 16.759 7.61873C17.2041 8.40279 17.4816 9.27071 17.5741 10.1676C17.8192 11.8004 17.4886 13.4677 16.6391 14.8836C16.1433 15.7474 15.4497 16.4814 14.6154 17.0253C13.781 17.5692 12.8295 17.9076 11.8391 18.0126C10.7098 18.1996 9.55101 18.0755 8.48703 17.6535C7.42305 17.2316 6.49413 16.5277 5.80005 15.6176C5.7837 15.5934 5.76933 15.568 5.75705 15.5416L5.69505 15.5706ZM15.7731 11.0266C15.7439 10.6529 15.6952 10.2811 15.6271 9.91256C15.3832 8.70562 14.6993 7.63244 13.7084 6.90153C12.7174 6.17062 11.4902 5.83417 10.2651 5.95756C9.60898 5.99462 8.96782 6.16795 8.38243 6.46649C7.79705 6.76504 7.28028 7.18226 6.86505 7.69156C6.35354 8.30655 5.98868 9.02987 5.7981 9.80675C5.60752 10.5836 5.59622 11.3937 5.76505 12.1756C5.89028 12.9664 6.20413 13.7155 6.68006 14.3594C7.15599 15.0033 7.78001 15.5231 8.49931 15.8749C9.21862 16.2267 10.0121 16.4 10.8125 16.3803C11.613 16.3605 12.3969 16.1483 13.0981 15.7616C13.9485 15.3087 14.652 14.6224 15.1259 13.7835C15.5997 12.9445 15.8242 11.9877 15.7731 11.0256" fill="white"/>
        <path d="M26.2676 11.7666C26.3542 12.9398 26.8552 14.044 27.681 14.8817C28.5069 15.7195 29.6038 16.2362 30.7756 16.3396C31.9023 16.4541 33.037 16.2214 34.0276 15.6726C34.2425 15.5482 34.4474 15.4075 34.6406 15.2516C34.7612 15.1465 34.9069 15.0743 35.0636 15.0423C35.2204 15.0102 35.3827 15.0193 35.5349 15.0686C35.6871 15.118 35.8239 15.2059 35.9319 15.3238C36.04 15.4418 36.1157 15.5857 36.1516 15.7416C36.1824 15.8817 36.1703 16.0278 36.1168 16.1609C36.0633 16.294 35.9709 16.4079 35.8516 16.4876C35.2129 17.0023 34.4843 17.3939 33.7026 17.6426C32.6145 18.055 31.4403 18.1883 30.2874 18.0302C29.1345 17.8721 28.0396 17.4277 27.1026 16.7376C26.4116 16.241 25.8298 15.6079 25.3934 14.8774C24.957 14.1468 24.6753 13.3345 24.5656 12.4906C24.2759 10.9358 24.4729 9.3294 25.1296 7.8906C25.5586 6.89785 26.2461 6.03843 27.1205 5.40203C27.9949 4.76563 29.0241 4.37559 30.1006 4.2726C31.5003 4.0563 32.9321 4.31506 34.1676 5.0076C34.9221 5.44709 35.5709 6.04677 36.0684 6.76434C36.5658 7.48192 36.8997 8.2999 37.0466 9.1606C37.1493 9.73464 37.2085 10.3156 37.2236 10.8986C37.2361 11.0124 37.2235 11.1275 37.1868 11.2359C37.1501 11.3443 37.09 11.4433 37.0109 11.5261C36.9318 11.6088 36.8356 11.6732 36.7289 11.7147C36.6223 11.7563 36.5078 11.774 36.3936 11.7666C36.1456 11.7766 35.8936 11.7666 35.6476 11.7666H26.2686H26.2676ZM26.3206 10.1666H35.4266C35.4097 9.57913 35.275 9.00105 35.0304 8.46663C34.7859 7.93221 34.4365 7.45235 34.003 7.05551C33.5695 6.65867 33.0608 6.35293 32.5069 6.15643C31.953 5.95993 31.3653 5.87667 30.7786 5.9116C29.6421 5.94796 28.559 6.40213 27.7365 7.1872C26.914 7.97226 26.4099 9.03307 26.3206 10.1666" fill="white"/>
        <path d="M41.0827 11.7667C41.1269 12.4452 41.3139 13.1066 41.6317 13.7077C42.0973 14.6029 42.825 15.3349 43.7175 15.8057C44.61 16.2765 45.6249 16.4639 46.6267 16.3427C47.668 16.2662 48.6628 15.8808 49.4837 15.2357C49.6223 15.1186 49.7929 15.0459 49.9734 15.027C50.1539 15.0081 50.3358 15.0439 50.4957 15.1297C50.6398 15.1959 50.7618 15.3023 50.8471 15.436C50.9324 15.5697 50.9774 15.7251 50.9767 15.8837C50.978 16.0012 50.9506 16.1173 50.897 16.2218C50.8433 16.3264 50.7649 16.4162 50.6687 16.4837C49.3801 17.4882 47.7949 18.0373 46.161 18.0451C44.5272 18.0529 42.9368 17.5189 41.6387 16.5267C40.3599 15.4832 39.5393 13.9815 39.3517 12.3417C39.1351 11.0227 39.2625 9.67004 39.7217 8.41469C40.148 7.07537 41.0118 5.91805 42.1745 5.12839C43.3372 4.33873 44.7315 3.9625 46.1336 4.06005C47.5358 4.15761 48.8645 4.7233 49.9067 5.66638C50.9488 6.60945 51.644 7.87524 51.8807 9.26069C51.9685 9.81524 52.017 10.3753 52.0257 10.9367C52.0343 11.0431 52.0204 11.1502 51.985 11.2509C51.9495 11.3516 51.8933 11.4438 51.8199 11.5214C51.7466 11.599 51.6577 11.6603 51.5591 11.7013C51.4606 11.7424 51.3545 11.7623 51.2477 11.7597C51.1477 11.7657 51.0477 11.7657 50.9407 11.7657H41.0837L41.0827 11.7667ZM41.1337 10.1667H50.2287C50.1925 9.07043 49.749 8.02702 48.9848 7.24023C48.2205 6.45343 47.1905 5.97976 46.0957 5.91169C45.4904 5.86473 44.8818 5.93758 44.3047 6.12609C43.7275 6.31459 43.1933 6.61504 42.7324 7.01026C42.2715 7.40547 41.8931 7.88768 41.6188 8.42929C41.3444 8.97091 41.1796 9.5613 41.1337 10.1667Z" fill="white"/>
        <path d="M84.9867 15.061C85.2777 14.423 85.5477 13.834 85.8147 13.244C87.0754 10.4667 88.3361 7.68932 89.5967 4.91198C89.6541 4.75459 89.7527 4.61545 89.8821 4.50907C90.0115 4.40268 90.167 4.33294 90.3326 4.30711C90.4981 4.28127 90.6675 4.30029 90.8232 4.36218C90.9789 4.42406 91.1151 4.52656 91.2177 4.65898C91.308 4.75154 91.3687 4.86887 91.392 4.99603C91.4153 5.12319 91.4003 5.25442 91.3487 5.37298C91.2237 5.70698 91.0727 6.03198 90.9247 6.35698C88.3674 11.9757 85.8094 17.5936 83.2507 23.211L83.2137 23.29C83.1784 23.417 83.1128 23.5336 83.0225 23.6297C82.9322 23.7258 82.82 23.7986 82.6954 23.8417C82.5708 23.8849 82.4375 23.8972 82.3071 23.8776C82.1768 23.8579 82.0531 23.8069 81.9467 23.729C81.8439 23.6918 81.7505 23.6326 81.6728 23.5556C81.5952 23.4786 81.5353 23.3856 81.4972 23.2831C81.4592 23.1807 81.4439 23.0711 81.4524 22.9621C81.461 22.8531 81.4932 22.7473 81.5467 22.652C81.8257 22.002 82.1267 21.361 82.4187 20.716C82.9307 19.586 83.4407 18.456 83.9587 17.329C83.9927 17.266 84.0105 17.1955 84.0105 17.124C84.0105 17.0524 83.9927 16.982 83.9587 16.919C82.1421 13.1697 80.3281 9.41865 78.5167 5.66598C78.429 5.51824 78.385 5.34858 78.39 5.1768C78.395 5.00503 78.4488 4.83822 78.5451 4.69585C78.6413 4.55348 78.7761 4.44142 78.9336 4.37274C79.0911 4.30406 79.2649 4.2816 79.4347 4.30798C79.5853 4.31961 79.7293 4.37424 79.8497 4.46536C79.97 4.55648 80.0617 4.68027 80.1137 4.82198L82.1317 9.07399C83.0451 10.9987 83.9587 12.9233 84.8727 14.848C84.8997 14.905 84.9327 14.96 84.9877 15.06" fill="white"/>
        <path d="M98.5462 4.19934C99.9482 4.14725 101.325 4.57947 102.446 5.42334C102.741 5.66237 103.014 5.92707 103.262 6.21434C103.426 6.35392 103.53 6.55083 103.553 6.76468C103.576 6.97852 103.516 7.19308 103.386 7.36434C103.232 7.53325 103.026 7.64499 102.8 7.68131C102.575 7.71764 102.343 7.6764 102.144 7.56433C102.011 7.48981 101.891 7.3931 101.789 7.27834C101.408 6.85157 100.941 6.51035 100.419 6.27715C99.8962 6.04394 99.3304 5.92404 98.7582 5.92533C97.9897 5.86008 97.2176 6.00056 96.5212 6.33234C96.1767 6.47508 95.8875 6.72548 95.697 7.04612C95.5065 7.36677 95.4248 7.74045 95.4642 8.11134C95.4888 8.36726 95.5749 8.61344 95.7153 8.82885C95.8556 9.04426 96.046 9.22249 96.2702 9.34834C96.8256 9.67691 97.4352 9.90379 98.0703 10.0183C98.9113 10.2003 99.7612 10.3453 100.594 10.5563C101.461 10.7568 102.261 11.1762 102.919 11.7743C103.284 12.1093 103.565 12.5262 103.738 12.9907C103.91 13.4553 103.97 13.9541 103.912 14.4463C103.851 15.1099 103.605 15.7431 103.202 16.2745C102.8 16.8058 102.257 17.2141 101.635 17.4533C100.471 17.9828 99.1866 18.19 97.9153 18.0533C96.8266 17.9818 95.7628 17.6957 94.7852 17.2113C94.2713 16.9535 93.8058 16.6088 93.4092 16.1923C93.309 16.1092 93.2282 16.0052 93.1723 15.8876C93.1165 15.77 93.087 15.6416 93.086 15.5114C93.0849 15.3812 93.1123 15.2523 93.1663 15.1338C93.2202 15.0153 93.2994 14.9101 93.3983 14.8253C93.4959 14.7365 93.6103 14.6682 93.7348 14.6243C93.8593 14.5805 93.9914 14.5621 94.1231 14.5702C94.2549 14.5784 94.3836 14.6128 94.5018 14.6716C94.62 14.7303 94.7253 14.8122 94.8112 14.9123C95.2112 15.3528 95.7065 15.6962 96.2592 15.9163C97.2525 16.2976 98.3237 16.4314 99.3802 16.3063C99.9218 16.2818 100.452 16.142 100.935 15.8963C101.22 15.7593 101.469 15.5589 101.664 15.3104C101.859 15.062 101.994 14.7722 102.059 14.4633C102.124 14.1455 102.093 13.8156 101.97 13.5155C101.847 13.2153 101.637 12.9585 101.368 12.7773C100.802 12.3733 100.153 12.1001 99.4682 11.9773C98.6862 11.7983 97.8912 11.6773 97.1122 11.4833C96.2166 11.2873 95.3801 10.8819 94.6712 10.3003C94.3139 9.97813 94.0322 9.58087 93.8463 9.13702C93.6605 8.69317 93.5751 8.21371 93.5963 7.733C93.6176 7.25228 93.7448 6.78221 93.9691 6.35645C94.1933 5.9307 94.5089 5.5598 94.8932 5.27034C95.6677 4.71329 96.5744 4.36855 97.5233 4.27034C97.8633 4.22634 98.2073 4.21934 98.5493 4.19434" fill="white"/>
        <path d="M71.4535 4.1993C72.8932 4.14714 74.3047 4.60783 75.4365 5.4993C75.7094 5.73057 75.9623 5.98447 76.1925 6.2583C76.3359 6.38724 76.4286 6.56306 76.4541 6.7542C76.4796 6.94535 76.4361 7.13931 76.3315 7.3013C76.2182 7.4653 76.0543 7.5877 75.8649 7.64981C75.6755 7.71193 75.4709 7.71034 75.2825 7.6453C75.062 7.57426 74.8621 7.45032 74.7005 7.2843C74.2993 6.84118 73.8071 6.49003 73.2575 6.25494C72.7079 6.01986 72.114 5.90638 71.5165 5.9223C70.9094 5.87965 70.3005 5.97362 69.7345 6.1973C69.3998 6.34061 69.0915 6.53903 68.8225 6.7843C68.651 6.95045 68.5188 7.15289 68.4357 7.37676C68.3526 7.60063 68.3207 7.84026 68.3423 8.07808C68.3639 8.3159 68.4384 8.54587 68.5604 8.75113C68.6825 8.95639 68.8489 9.13174 69.0475 9.2643C69.6307 9.64352 70.285 9.90006 70.9705 10.0183C71.8605 10.2183 72.7605 10.3703 73.6415 10.6013C74.4777 10.8047 75.245 11.226 75.8655 11.8223C76.4772 12.4426 76.8226 13.2771 76.8282 14.1482C76.8338 15.0193 76.4992 15.8582 75.8955 16.4863C75.0626 17.311 73.9784 17.8343 72.8145 17.9733C71.1292 18.2441 69.4014 18.0056 67.8525 17.2883C67.2589 17.0174 66.7242 16.6329 66.2785 16.1563C66.1883 16.0738 66.1162 15.9733 66.0669 15.8614C66.0176 15.7495 65.9922 15.6286 65.9922 15.5063C65.9922 15.384 66.0176 15.2631 66.0669 15.1512C66.1162 15.0393 66.1883 14.9388 66.2785 14.8563C66.3673 14.7659 66.473 14.6941 66.5898 14.6449C66.7065 14.5956 66.8318 14.5701 66.9584 14.5696C67.0851 14.5691 67.2106 14.5938 67.3277 14.6421C67.4447 14.6905 67.5511 14.7616 67.6405 14.8513C68.3711 15.6437 69.3618 16.1476 70.4325 16.2713C71.3948 16.4304 72.3801 16.3789 73.3205 16.1203C73.8396 15.9779 74.2968 15.6673 74.6205 15.2373C74.7604 15.065 74.8649 14.8668 74.9278 14.6539C74.9908 14.4411 75.011 14.2179 74.9873 13.9972C74.9636 13.7765 74.8964 13.5627 74.7897 13.3681C74.683 13.1735 74.5388 13.0019 74.3655 12.8633C73.8292 12.441 73.1985 12.1552 72.5275 12.0303C71.6965 11.8353 70.8535 11.6953 70.0275 11.4963C69.2126 11.3134 68.444 10.9648 67.7695 10.4723C67.3686 10.1646 67.0446 9.76802 66.8233 9.31373C66.6019 8.85944 66.4891 8.35991 66.4939 7.85458C66.4986 7.34924 66.6208 6.85193 66.8506 6.40188C67.0805 5.95183 67.4118 5.56137 67.8185 5.2613C68.591 4.71457 69.4919 4.37697 70.4335 4.2813C70.7735 4.2383 71.1175 4.2303 71.4605 4.2063" fill="white"/>
        <path d="M107.999 6.49143C107.469 6.49143 106.973 6.49143 106.478 6.49143C106.361 6.49184 106.245 6.47944 106.131 6.45443C105.928 6.4114 105.75 6.28973 105.637 6.11601C105.523 5.94229 105.483 5.73067 105.525 5.52743C105.549 5.33692 105.642 5.16182 105.786 5.0355C105.931 4.90917 106.117 4.84045 106.309 4.84243C106.784 4.83743 107.26 4.84243 107.735 4.84243H108V4.55743C108 3.38076 108 2.20443 108 1.02843C107.975 0.826618 108.018 0.622103 108.122 0.447665C108.227 0.273228 108.387 0.138974 108.577 0.0664253C108.726 0.00127289 108.889 -0.0248062 109.05 -0.00933547C109.212 0.00613526 109.366 0.0626422 109.5 0.154819C109.634 0.246996 109.741 0.371784 109.813 0.517331C109.885 0.662879 109.918 0.824355 109.91 0.986425C109.892 2.17743 109.905 3.36843 109.905 4.55943C109.905 4.83943 109.905 4.83943 110.194 4.83943H112.717C112.83 4.82787 112.945 4.84077 113.052 4.87726C113.16 4.91376 113.259 4.97298 113.342 5.05093C113.425 5.12888 113.49 5.22374 113.533 5.32906C113.576 5.43439 113.596 5.54774 113.591 5.66143C113.594 5.77523 113.573 5.88834 113.529 5.99341C113.485 6.09847 113.42 6.19313 113.337 6.27123C113.254 6.34934 113.156 6.40913 113.048 6.44672C112.941 6.48431 112.827 6.49886 112.713 6.48943C111.865 6.48943 111.013 6.48943 110.168 6.48943H109.904V6.74743C109.904 8.88843 109.896 11.0294 109.904 13.1704C109.875 13.6849 109.99 14.1973 110.236 14.6499C110.483 15.1026 110.85 15.4775 111.298 15.7324C111.671 15.9388 112.091 16.0423 112.517 16.0324C112.795 16.0244 113.072 16.0304 113.349 16.0504C113.556 16.0625 113.751 16.1511 113.896 16.299C114.041 16.4469 114.125 16.6435 114.133 16.8504C114.169 17.05 114.137 17.256 114.042 17.435C113.946 17.6139 113.793 17.7554 113.607 17.8364C113.523 17.8802 113.431 17.9087 113.337 17.9204C112.234 18.0626 111.115 17.8354 110.154 17.2744C109.526 16.8972 109.004 16.3679 108.635 15.7353C108.266 15.1028 108.062 14.3875 108.042 13.6554C107.965 11.5554 108.005 9.44843 107.996 7.34443C107.996 7.06743 107.996 6.79143 107.996 6.48143" fill="white"/>
        <path d="M57.1823 6.35343L57.3823 6.11643C57.9331 5.42796 58.6509 4.89192 59.4675 4.55934C60.2841 4.22677 61.1722 4.10872 62.0473 4.21643C62.4646 4.23543 62.8733 4.34135 63.2473 4.52743C63.3729 4.57933 63.482 4.66446 63.5629 4.7737C63.6437 4.88294 63.6933 5.01214 63.7063 5.14743C63.7433 5.76943 63.3783 6.09043 62.7313 6.04243C62.1639 5.99003 61.594 5.96899 61.0243 5.97943C60.0805 5.99475 59.1684 6.32212 58.4303 6.91043C58.0554 7.19376 57.7495 7.55832 57.5356 7.97675C57.3217 8.39518 57.2053 8.85661 57.1953 9.32643C57.1673 10.4264 57.1723 11.5174 57.1693 12.6134C57.1693 14.0744 57.1693 15.5364 57.1693 16.9974C57.179 17.1702 57.1408 17.3423 57.0587 17.4947C56.9767 17.6471 56.8542 17.7739 56.7046 17.8609C56.555 17.948 56.3843 17.9919 56.2113 17.988C56.0382 17.984 55.8697 17.9323 55.7243 17.8384C55.5812 17.7549 55.4651 17.6319 55.3899 17.4842C55.3147 17.3365 55.2836 17.1703 55.3003 17.0054C55.3003 16.3474 55.3003 15.6904 55.3003 15.0324C55.3003 11.7951 55.3003 8.55777 55.3003 5.32043C55.3003 4.81543 55.4853 4.50543 55.8743 4.39243C56.5253 4.20443 57.2223 4.47343 57.1743 5.31943C57.1593 5.57443 57.1743 5.83043 57.1743 6.08643C57.1743 6.15643 57.1823 6.22543 57.1913 6.35543" fill="white"/>
    </g>
    <defs>
        <clipPath id="clip0_214_113">
            <rect width="114.15" height="23.881" fill="white"/>
        </clipPath>
    </defs>
</svg>